<?xml version="1.0" encoding="UTF-8" standalone="no"?>
<!-- Created with Inkscape (http://www.inkscape.org/) -->

<svg
   width="210mm"
   height="297mm"
   viewBox="0 0 210 297"
   version="1.1"
   id="svg1"
   inkscape:version="1.3.2 (091e20ef0f, 2023-11-25)"
   sodipodi:docname="icon.svg"
   xmlns:inkscape="http://www.inkscape.org/namespaces/inkscape"
   xmlns:sodipodi="http://sodipodi.sourceforge.net/DTD/sodipodi-0.dtd"
   xmlns="http://www.w3.org/2000/svg"
   xmlns:svg="http://www.w3.org/2000/svg">
  <sodipodi:namedview
     id="namedview1"
     pagecolor="#ffffff"
     bordercolor="#000000"
     borderopacity="0.25"
     inkscape:showpageshadow="2"
     inkscape:pageopacity="0.0"
     inkscape:pagecheckerboard="0"
     inkscape:deskcolor="#d1d1d1"
     inkscape:document-units="px"
     showgrid="true"
     inkscape:zoom="2.9540684"
     inkscape:cx="93.938245"
     inkscape:cy="164.0111"
     inkscape:window-width="950"
     inkscape:window-height="1017"
     inkscape:window-x="0"
     inkscape:window-y="29"
     inkscape:window-maximized="0"
     inkscape:current-layer="layer1">
    <inkscape:grid
       id="grid1"
       units="px"
       originx="0"
       originy="0"
       spacingx="0.26458333"
       spacingy="0.26458334"
       empcolor="#0099e5"
       empopacity="0.30196078"
       color="#0099e5"
       opacity="0.14901961"
       empspacing="5"
       dotted="false"
       gridanglex="30"
       gridanglez="30"
       visible="true" />
  </sodipodi:namedview>
  <defs
     id="defs1" />
  <g
     inkscape:label="Layer 1"
     inkscape:groupmode="layer"
     id="layer1">
    <path
       id="rect2"
       style="fill:none;stroke:#000000;stroke-width:2.11667"
       d="m 27.781249,30.427084 c 1.322917,-1.322916 2.645834,-1.322917 2.645834,-1.322917 h 3.968749 3.96875 c 0,0 1.322917,1e-6 2.645834,1.322917 1.322916,1.322917 1.322916,2.645832 1.322916,2.645832 v 3.96875 7.937501 7.9375 3.968751 c 0,0 0,1.322917 -1.322916,2.645834 -1.322917,1.322917 -2.645834,1.322916 -2.645834,1.322916 h -3.96875 -3.96875 c 0,0 -1.322916,10e-7 -2.645833,-1.322916 -1.322916,-1.322917 -1.322917,-2.645834 -1.322917,-2.645834 v -3.96875 -7.9375 l 1e-6,-7.9375 v -3.96875 c 0,0 0,-1.322917 1.322916,-2.645834 z"
       sodipodi:nodetypes="zccczccccczccczcccccz"
       inkscape:export-filename="app/src/main/res/drawable/icon_sq.png"
       inkscape:export-xdpi="21.889999"
       inkscape:export-ydpi="21.889999" />
    <ellipse
       style="fill:#800000;stroke:#000000;stroke-width:0.52916667"
       id="path2"
       cx="31.088541"
       cy="33.734375"
       rx="1.4174103"
       ry="1.4174118" />
    <g
       id="path2-0"
       transform="translate(-1.5875017)">
      <path
         style="color:#000000;fill:#ff0000;-inkscape-stroke:none"
         d="m 41.366803,27.891953 c 0,0.791765 -0.633393,0.683048 -1.414721,0.683048 -0.781328,0 -1.414718,0.108718 -1.414718,-0.683048 0,-0.791766 0.633392,-1.433619 1.41472,-1.433619 0.781328,0 1.414719,0.641853 1.414719,1.433619 z"
         id="path4"
         sodipodi:nodetypes="sssss" />
      <path
         style="color:#000000;fill:#000000;-inkscape-stroke:none"
         d="m 39.687499,26.193621 c -0.926229,0 -1.677735,0.766347 -1.677735,1.699219 1e-6,0.932871 0.752417,1.061824 1.678646,1.061824 0.926228,-1e-6 1.678776,-0.128953 1.678776,-1.061824 1e-6,-0.932871 -0.753458,-1.699218 -1.679687,-1.699219 z m 0,0.529297 c 0.636426,1e-6 1.150391,0.519264 1.15039,1.169922 0,0.650658 -0.513054,0.526238 -1.149479,0.526238 -0.636426,0 -1.149348,0.12442 -1.149349,-0.526238 0,-0.650659 0.512012,-1.169922 1.148438,-1.169922 z"
         id="path5"
         sodipodi:nodetypes="ssssssssss" />
    </g>
    <ellipse
       style="fill:#999999;stroke:#000000;stroke-width:0.52916667"
       id="path3"
       cx="37.703125"
       cy="54.901039"
       rx="0.66145831"
       ry="1.9843751" />
    <ellipse
       style="fill:#666666;stroke:#000000;stroke-width:0.52916667"
       id="path3-5"
       cx="31.088541"
       cy="54.901039"
       rx="0.66145831"
       ry="1.9843751" />
    <rect
       style="fill:#b3b3b3;stroke:#000000;stroke-width:0.529167"
       id="rect4"
       width="1.7197933"
       height="1.5044107"
       x="28.707289"
       y="38.18309" />
    <rect
       style="fill:#b3b3b3;stroke:#000000;stroke-width:0.529167"
       id="rect4-2"
       width="1.7197933"
       height="1.5044107"
       x="31.75"
       y="38.18309" />
    <rect
       style="fill:#b3b3b3;stroke:#000000;stroke-width:0.529167"
       id="rect4-7"
       width="1.7197933"
       height="1.5044107"
       x="37.967705"
       y="38.18309" />
    <rect
       style="fill:#b3b3b3;stroke:#000000;stroke-width:0.529167"
       id="rect4-2-0"
       width="1.7197933"
       height="1.5044107"
       x="34.858852"
       y="38.18309" />
    <rect
       style="fill:#b3b3b3;stroke:#000000;stroke-width:0.529167"
       id="rect4-8"
       width="1.7197933"
       height="1.5044107"
       x="28.707287"
       y="40.828926" />
    <rect
       style="fill:#b3b3b3;stroke:#000000;stroke-width:0.529167"
       id="rect4-2-7"
       width="1.7197933"
       height="1.5044107"
       x="31.75"
       y="40.828926" />
    <rect
       style="fill:#b3b3b3;stroke:#000000;stroke-width:0.529167"
       id="rect4-7-9"
       width="1.7197933"
       height="1.5044107"
       x="37.967705"
       y="40.828926" />
    <rect
       style="fill:#b3b3b3;stroke:#000000;stroke-width:0.529167"
       id="rect4-2-0-2"
       width="1.7197933"
       height="1.5044107"
       x="34.858852"
       y="40.828926" />
    <rect
       style="fill:#b3b3b3;stroke:#000000;stroke-width:0.529167"
       id="rect4-75"
       width="1.7197933"
       height="1.5044107"
       x="28.707287"
       y="43.474758" />
    <rect
       style="fill:#b3b3b3;stroke:#000000;stroke-width:0.529167"
       id="rect4-2-9"
       width="1.7197933"
       height="1.5044107"
       x="31.749998"
       y="43.474758" />
    <rect
       style="fill:#b3b3b3;stroke:#000000;stroke-width:0.529167"
       id="rect4-7-2"
       width="1.7197933"
       height="1.5044107"
       x="37.967705"
       y="43.474758" />
    <rect
       style="fill:#b3b3b3;stroke:#000000;stroke-width:0.529167"
       id="rect4-2-0-28"
       width="1.7197933"
       height="1.5044107"
       x="34.858852"
       y="43.474758" />
    <rect
       style="fill:#b3b3b3;stroke:#000000;stroke-width:0.529167"
       id="rect4-6"
       width="1.7197933"
       height="1.5044107"
       x="28.707287"
       y="46.12059" />
    <rect
       style="fill:#b3b3b3;stroke:#000000;stroke-width:0.529167"
       id="rect4-2-1"
       width="1.7197933"
       height="1.5044107"
       x="31.749998"
       y="46.12059" />
    <rect
       style="fill:#b3b3b3;stroke:#000000;stroke-width:0.529167"
       id="rect4-7-29"
       width="1.7197933"
       height="1.5044107"
       x="37.967705"
       y="46.12059" />
    <rect
       style="fill:#b3b3b3;stroke:#000000;stroke-width:0.529167"
       id="rect4-2-0-3"
       width="1.7197933"
       height="1.5044107"
       x="34.858852"
       y="46.12059" />
    <rect
       style="fill:#b3b3b3;stroke:#000000;stroke-width:0.529167"
       id="rect4-78"
       width="1.7197933"
       height="1.5044107"
       x="28.707287"
       y="48.766426" />
    <rect
       style="fill:#b3b3b3;stroke:#000000;stroke-width:0.529167"
       id="rect4-2-4"
       width="1.7197933"
       height="1.5044107"
       x="31.749998"
       y="48.766426" />
    <rect
       style="fill:#b3b3b3;stroke:#000000;stroke-width:0.529167"
       id="rect4-7-5"
       width="1.7197933"
       height="1.5044107"
       x="37.967705"
       y="48.766426" />
    <rect
       style="fill:#b3b3b3;stroke:#000000;stroke-width:0.529167"
       id="rect4-2-0-0"
       width="1.7197933"
       height="1.5044107"
       x="34.858852"
       y="48.766426" />
    <path
       style="fill:none;stroke:#000000;stroke-width:1.05833"
       d="m 34.131249,26.458334 c 0,-1.058334 1.322917,-2.645833 3.96875,-2.645833 2.645833,0 3.96875,1.587499 3.96875,2.645833"
       id="path6"
       sodipodi:nodetypes="csc" />
    <path
       style="fill:none;stroke:#000000;stroke-width:1.05833"
       d="m 32.808332,23.812501 c 0,-1.058334 1.852084,-3.175 5.291667,-3.175 3.439583,0 5.291666,2.116666 5.291666,3.175"
       id="path6-5"
       sodipodi:nodetypes="csc" />
    <path
       style="fill:none;stroke:#000000;stroke-width:1.05833"
       d="m 31.485416,21.166667 c 0,-1.058334 2.645833,-3.704166 6.614583,-3.704166 3.96875,0 6.614583,2.645832 6.614583,3.704166"
       id="path6-5-2"
       sodipodi:nodetypes="csc" />
  </g>
</svg>
